<svg version="1.1" xmlns="http://www.w3.org/2000/svg" xmlns:xlink="http://www.w3.org/1999/xlink" width="431.72429" height="54.6241" viewBox="0,0,431.72429,54.6241"><g transform="translate(-116.98015,-152.68795)"><g data-paper-data="{&quot;isPaintingLayer&quot;:true}" fill-opacity="0.50196" fill="#000000" fill-rule="nonzero" stroke="#ffffff" stroke-width="1.5" stroke-linecap="butt" stroke-linejoin="miter" stroke-miterlimit="10" stroke-dasharray="" stroke-dashoffset="0" style="mix-blend-mode: normal"><path d="M176.73686,206.56205c-2.20914,0 -4,-1.79086 -4,-4v-45.1241c0,-2.20914 1.79086,-4 4,-4h286.52628c2.20914,0 4,1.79086 4,4v45.1241c0,2.20914 -1.79086,4 -4,4z"/><path d="M117.73015,180c0,-12.42641 10.07359,-22.5 22.5,-22.5c12.42641,0 22.5,10.07359 22.5,22.5c0,12.42641 -10.07359,22.5 -22.5,22.5c-12.42641,0 -22.5,-10.07359 -22.5,-22.5z"/><path d="M482.77887,206.56204c-2.34266,0 -4.24176,-1.84972 -4.24176,-4.13147v-44.86115c0,-2.28175 1.8991,-4.13147 4.24176,-4.13147h60.93381c2.34266,0 4.24176,1.84973 4.24176,4.13147v44.86116c0,2.28175 -1.8991,4.13147 -4.24176,4.13147z"/></g></g></svg>