<svg version="1.1" xmlns="http://www.w3.org/2000/svg" xmlns:xlink="http://www.w3.org/1999/xlink" width="385.58149" height="292.40196" viewBox="0,0,385.58149,292.40196"><g transform="translate(-127.20925,-33.79902)"><g stroke-miterlimit="10"><path d="M131.95926,325.45098c-2.20914,0 -4,-1.79086 -4,-4v-282.90196c0,-2.20914 1.79086,-4 4,-4h376.08149c2.20914,0 4,1.79086 4,4v282.90196c0,2.20914 -1.79086,4 -4,4z" fill-opacity="0.74902" fill="#000000" stroke="#ffffff" stroke-width="1.5"/><path d="M491.05158,319.40902v-242.72215h18.28518v242.72215z" fill-opacity="0.50196" fill="#000000" stroke="#000000" stroke-width="1.5"/><path d="M493.86082,118.65399c0,-8.20072 0,-33.59065 0,-38.02877c0,-1.29544 1.43872,-2.41741 2.35958,-2.41741c0.63111,0 5.23847,0 8.07539,0c1.30244,0 2.23171,1.06264 2.23171,2.30287c0,4.34202 0,29.6781 0,38.02877c0,1.67647 -1.28709,2.66836 -2.34625,2.66836c-1.44719,0 -5.38902,0 -7.96084,0c-1.37583,0 -2.35958,-0.94692 -2.35958,-2.55382z" fill-opacity="0.25098" fill="#000000" stroke-opacity="0.50196" stroke="#ffffff" stroke-width="1.5"/><text transform="translate(272.69932,73.52012) scale(0.27893,0.27893)" font-size="40" xml:space="preserve" fill-opacity="0.50196" fill="#ffffff" stroke="none" stroke-width="1" font-family="&quot;Shag-Lounge&quot;, Sans Serif" font-weight="normal" text-anchor="start"><tspan x="0" dy="0">Double click to view</tspan></text><text transform="translate(288.28,59.46554) scale(0.5,0.5)" font-size="40" xml:space="preserve" fill="#ffffff" stroke="none" stroke-width="1" font-family="&quot;Shag-Lounge&quot;, Sans Serif" font-weight="normal" text-anchor="start"><tspan x="0" dy="0">VIDEOS</tspan></text></g></g></svg>