<svg version="1.1" xmlns="http://www.w3.org/2000/svg" xmlns:xlink="http://www.w3.org/1999/xlink" width="32.74947" height="32.74947" viewBox="0,0,32.74947,32.74947"><g transform="translate(-303.62527,-163.62527)"><g stroke-miterlimit="10"><path d="M308.37528,195.62474c-2.20914,0 -4,-1.79086 -4,-4v-23.24947c0,-2.20914 1.79086,-4 4,-4h23.24947c2.20914,0 4,1.79086 4,4v23.24947c0,2.20914 -1.79086,4 -4,4z" fill-opacity="0.50196" fill="#000000" fill-rule="nonzero" stroke="#ffffff" stroke-width="1.5"/><path d="M308.3549,184.62684h2.78223c1.18166,0 1.75667,0.03162 2.76247,-0.77262c0.21341,-0.16994 0.41497,-0.36754 0.60466,-0.5928c0.89909,-1.06903 1.2192,-2.36331 1.55512,-3.73467c0.65011,-2.65972 1.68554,-5.46961 4.44208,-6.58211c1.56896,-0.63233 3.71886,-0.51179 5.41626,-0.51179h1.04136l0.00197,-1.98589c0,-0.98998 0.23318,-1.16189 0.94652,-0.48412l3.86311,3.67143c0.46634,0.44263 0.40113,0.73113 -0.04347,1.15795l-3.81371,3.65563c-0.66592,0.67382 -0.96628,0.48412 -0.95244,-0.44658v-2.33169c-6.71845,-0.10275 -6.43588,0.32999 -8.30914,6.73624c-0.6916,1.98392 -1.74087,3.37503 -3.08061,4.28597c-1.401,0.95244 -2.70319,1.26267 -4.35118,1.26267h-2.04715c-1.17375,0 -1.31405,-0.05533 -1.31405,-1.25674v-1.44249c-0.00395,-0.38532 0.15017,-0.60466 0.49598,-0.62837zM307.90438,174.74479c-0.00395,0.38532 0.15017,0.60466 0.49598,0.62837h2.90474c1.18166,0 1.75668,-0.03162 2.76247,0.77262c0.21341,0.16994 0.41496,0.36754 0.60466,0.5928c0.22922,0.27269 0.42089,0.56119 0.5849,0.85957c0.2964,-0.92675 0.66394,-1.83572 1.15004,-2.66762c0.13832,-0.23514 0.28455,-0.46436 0.44065,-0.68765c-0.34383,-0.35568 -0.71335,-0.66592 -1.10855,-0.93466c-1.401,-0.95244 -2.70319,-1.26267 -4.35118,-1.26267h-2.16966c-1.17375,0 -1.31405,0.05533 -1.31405,1.25675v1.44249zM320.67141,187.05536c1.56896,0.63233 3.59832,0.51179 5.29572,0.51179h1.04136l0.00197,1.98589c0,0.98998 0.23317,1.16189 0.94651,0.48412l3.86311,-3.67143c0.46634,-0.44263 0.40113,-0.73113 -0.04347,-1.15795l-3.81371,-3.65563c-0.66592,-0.67382 -0.96627,-0.48412 -0.95244,0.44658v2.3317c-4.89657,0.07509 -6.01104,-0.13634 -6.97929,-2.7348c-0.05335,0.18575 -0.12646,0.44065 -0.38137,1.31405c-0.00593,0.01976 -0.01186,0.03754 -0.01779,0.05533c-0.32999,0.94058 -0.72717,1.76458 -1.18758,2.4878c0.5849,0.6758 1.3101,1.23303 2.22697,1.60255z" fill="#ffffff" fill-rule="evenodd" stroke="none" stroke-width="1"/><path d="M307.8945,174.74462l0.00052,-1.4455c0,-1.20142 0.14223,-1.26009 1.31599,-1.26009l2.17377,-0.00278c1.648,0 2.96251,0.31549 4.36351,1.26793c0.3952,0.26874 0.76551,0.58176 1.10933,0.93744c-0.15611,0.22329 -0.30225,0.45404 -0.44057,0.68919c-0.4861,0.8319 -0.8564,1.74746 -1.15281,2.67421c-0.16401,-0.29838 -0.37038,-0.60007 -0.5996,-0.87275c-0.1897,-0.22526 -0.37588,-0.41045 -0.58929,-0.58038c-1.00579,-0.80424 -1.59738,-0.77419 -2.77903,-0.77419l-2.90575,-0.00316c-0.3458,-0.02371 -0.50003,-0.24458 -0.49607,-0.6299z" fill="#ffffff" fill-rule="nonzero" stroke="none" stroke-width="0.5"/></g></g></svg>